<?xml version="1.0" encoding="UTF-8"?>
<svg width="73px" height="55px" viewBox="0 0 73 55" version="1.1" xmlns="http://www.w3.org/2000/svg" xmlns:xlink="http://www.w3.org/1999/xlink">
    <!-- Generator: Sketch 48.2 (47327) - http://www.bohemiancoding.com/sketch -->
    <title>dendrils</title>
    <desc>Created with Sketch.</desc>
    <defs></defs>
    <g id="Page-1" stroke="none" stroke-width="1" fill="none" fill-rule="evenodd" stroke-linecap="square">
        <g id="dendrils" stroke="#FFFFFF">
            <path d="M0.5,0.5 L54.5,35.5" id="Line" stroke-width="0.5"></path>
            <path d="M19.5,13.5 L16.5,45.5" id="Line-2" stroke-width="0.35"></path>
            <path d="M27.5,17.5 L57.5,8.5" id="Line-3" stroke-width="0.4"></path>
            <path d="M13.5,9.5 L10.5,33.5" id="Line-4" stroke-width="0.35"></path>
            <path d="M23.5,14.5 L33.5,10.5" id="Line-5" stroke-width="0.25"></path>
            <path d="M57.5,8.5 L57.5,19.5" id="Line-6" stroke-width="0.25"></path>
            <path d="M16.5,45.5 L36.5,44.5" id="Line-7" stroke-width="0.25"></path>
            <path d="M33.5,10.5 L40.5,11.5" id="Line-8" stroke-width="0.25"></path>
            <path d="M40.5,13.5 L30.5,24.5" id="Line-23" stroke-width="0.25"></path>
            <path d="M43.5,12.5 L50.5,27.5" id="Line-24" stroke-width="0.25"></path>
            <path d="M10.5,33.5 L12.5,39.5" id="Line-9" stroke-width="0.4"></path>
            <path d="M54.5,35.5 L65.5,30.5" id="Line-10" stroke-width="0.25"></path>
            <path d="M38.5,25.5 L28.5,30.5" id="Line-11" stroke-width="0.25"></path>
            <path d="M43.5,28.5 L44.5,45.5" id="Line-12" stroke-width="0.25"></path>
            <path d="M12.5,20.5 L25.5,21.5" id="Line-13" stroke-width="0.25"></path>
            <path d="M59.5,33.5 L50.5,7.5" id="Line-14" stroke-width="0.45"></path>
            <path d="M32.5,21.5 L52.5,21.5" id="Line-15" stroke-width="0.6"></path>
            <path d="M52.5,21.5 L57.5,51.5" id="Line-16" stroke-width="0.9"></path>
            <path d="M62.5,32.5 L72.5,34.5" id="Line-17" stroke-width="0.25"></path>
            <path d="M16.5,10.5 L32.5,2.5" id="Line-18" stroke-width="0.25"></path>
            <path d="M7.5,4.5 L17.5,5.5" id="Line-20" stroke-width="0.25"></path>
            <path d="M32.5,2.5 L35.5,3.5" id="Line-21" stroke-width="0.25"></path>
            <path d="M35.5,3.5 L35.5,6.5" id="Line-22" stroke-width="0.25"></path>
            <path d="M12.5,20.5 L46.5,54.5" id="Line-19" stroke-width="0.4"></path>
            <path d="M31.5,39.5 L38.5,38.5" id="Line-25" stroke-width="0.25"></path>
            <path d="M35.5,27.5 L34.5,35.5" id="Line-26" stroke-width="0.25"></path>
            <path d="M38.5,25.5 L39.5,34.5" id="Line-27" stroke-width="0.25"></path>
            <path d="M43.5,28.5 L49.5,40.5" id="Line-28" stroke-width="0.25"></path>
            <path d="M59.5,32.5 L63.5,25.5" id="Line-29" stroke-width="0.25"></path>
            <path d="M61.5,32.5 L61.5,40.5" id="Line-30" stroke-width="0.25"></path>
            <path d="M62.5,33.5 L72.5,45.5" id="Line-31" stroke-width="0.25"></path>
            <path d="M12.5,20.5 L14.5,29.5" id="Line-32" stroke-width="0.2"></path>
            <path d="M10.5,33.5 L32.5,37.5" id="Line-33" stroke-width="0.4"></path>
            <path d="M18.5,35.5 L26.5,42.5" id="Line-34" stroke-width="0.25"></path>
        </g>
    </g>
</svg>