<?xml version="1.0" encoding="UTF-8"?>
<svg width="221px" height="91px" viewBox="0 0 221 91" version="1.1" xmlns="http://www.w3.org/2000/svg" xmlns:xlink="http://www.w3.org/1999/xlink">
    <!-- Generator: Sketch 48.2 (47327) - http://www.bohemiancoding.com/sketch -->
    <title>gridlines</title>
    <desc>Created with Sketch.</desc>
    <defs></defs>
    <g id="Page-1" stroke="none" stroke-width="1" fill="none" fill-rule="evenodd" stroke-linecap="square">
        <g id="gridlines" transform="translate(-1.000000, 0.000000)" stroke="#FFFFFF" stroke-width="0.25">
            <g id="Group-2">
                <g id="Group" transform="translate(4.000000, 0.000000)">
                    <path d="M58.5,0.968085106 L58.5,90.0319149" id="Line-35"></path>
                    <path d="M51.5,0.968085106 L51.5,90.0319149" id="Line-35-Copy"></path>
                    <path d="M44.5,0.968085106 L44.5,90.0319149" id="Line-35-Copy-2"></path>
                    <path d="M77.5,0.968085106 L77.5,90.0319149" id="Line-35"></path>
                    <path d="M70.5,0.968085106 L70.5,90.0319149" id="Line-35-Copy"></path>
                    <path d="M65.5,0.968085106 L65.5,90.0319149" id="Line-35-Copy-2"></path>
                    <path d="M17.5,0.968085106 L17.5,90.0319149" id="Line-35"></path>
                    <path d="M10.5,0.968085106 L10.5,90.0319149" id="Line-35-Copy"></path>
                    <path d="M3.5,0.968085106 L3.5,90.0319149" id="Line-35-Copy-2"></path>
                    <path d="M37.5,0.968085106 L37.5,90.0319149" id="Line-35"></path>
                    <path d="M30.5,0.968085106 L30.5,90.0319149" id="Line-35-Copy"></path>
                    <path d="M24.5,0.968085106 L24.5,90.0319149" id="Line-35-Copy-2"></path>
                    <path d="M99.5,0.968085106 L99.5,90.0319149" id="Line-35"></path>
                    <path d="M92.5,0.968085106 L92.5,90.0319149" id="Line-35-Copy"></path>
                    <path d="M85.5,0.968085106 L85.5,90.0319149" id="Line-35-Copy-2"></path>
                    <path d="M118.5,0.968085106 L118.5,90.0319149" id="Line-35"></path>
                    <path d="M111.5,0.968085106 L111.5,90.0319149" id="Line-35-Copy"></path>
                    <path d="M106.5,0.968085106 L106.5,90.0319149" id="Line-35-Copy-2"></path>
                    <path d="M139.5,0.968085106 L139.5,90.0319149" id="Line-35"></path>
                    <path d="M132.5,0.968085106 L132.5,90.0319149" id="Line-35-Copy"></path>
                    <path d="M125.5,0.968085106 L125.5,90.0319149" id="Line-35-Copy-2"></path>
                    <path d="M159.5,0.968085106 L159.5,90.0319149" id="Line-35"></path>
                    <path d="M152.5,0.968085106 L152.5,90.0319149" id="Line-35-Copy"></path>
                    <path d="M147.5,0.968085106 L147.5,90.0319149" id="Line-35-Copy-2"></path>
                </g>
                <g id="Group" transform="translate(62.000000, 0.000000)">
                    <path d="M58.5,0.968085106 L58.5,90.0319149" id="Line-35"></path>
                    <path d="M51.5,0.968085106 L51.5,90.0319149" id="Line-35-Copy"></path>
                    <path d="M44.5,0.968085106 L44.5,90.0319149" id="Line-35-Copy-2"></path>
                    <path d="M77.5,0.968085106 L77.5,90.0319149" id="Line-35"></path>
                    <path d="M70.5,0.968085106 L70.5,90.0319149" id="Line-35-Copy"></path>
                    <path d="M65.5,0.968085106 L65.5,90.0319149" id="Line-35-Copy-2"></path>
                    <path d="M17.5,0.968085106 L17.5,90.0319149" id="Line-35"></path>
                    <path d="M10.5,0.968085106 L10.5,90.0319149" id="Line-35-Copy"></path>
                    <path d="M3.5,0.968085106 L3.5,90.0319149" id="Line-35-Copy-2"></path>
                    <path d="M37.5,0.968085106 L37.5,90.0319149" id="Line-35"></path>
                    <path d="M30.5,0.968085106 L30.5,90.0319149" id="Line-35-Copy"></path>
                    <path d="M24.5,0.968085106 L24.5,90.0319149" id="Line-35-Copy-2"></path>
                    <path d="M99.5,0.968085106 L99.5,90.0319149" id="Line-35"></path>
                    <path d="M92.5,0.968085106 L92.5,90.0319149" id="Line-35-Copy"></path>
                    <path d="M85.5,0.968085106 L85.5,90.0319149" id="Line-35-Copy-2"></path>
                    <path d="M118.5,0.968085106 L118.5,90.0319149" id="Line-35"></path>
                    <path d="M111.5,0.968085106 L111.5,90.0319149" id="Line-35-Copy"></path>
                    <path d="M106.5,0.968085106 L106.5,90.0319149" id="Line-35-Copy-2"></path>
                    <path d="M139.5,0.968085106 L139.5,90.0319149" id="Line-35"></path>
                    <path d="M132.5,0.968085106 L132.5,90.0319149" id="Line-35-Copy"></path>
                    <path d="M125.5,0.968085106 L125.5,90.0319149" id="Line-35-Copy-2"></path>
                    <path d="M159.5,0.968085106 L159.5,90.0319149" id="Line-35"></path>
                    <path d="M152.5,0.968085106 L152.5,90.0319149" id="Line-35-Copy"></path>
                    <path d="M147.5,0.968085106 L147.5,90.0319149" id="Line-35-Copy-2"></path>
                </g>
                <g id="Group" transform="translate(66.000000, 42.500000) rotate(-90.000000) translate(-66.000000, -42.500000) translate(30.500000, -23.500000)">
                    <path d="M26,1.40425532 L26,130.595745" id="Line-35"></path>
                    <path d="M22,1.40425532 L22,130.595745" id="Line-35-Copy"></path>
                    <path d="M18,1.40425532 L18,130.595745" id="Line-35-Copy-2"></path>
                    <path d="M32,1.40425532 L32,130.595745" id="Line-35"></path>
                    <path d="M31,1.40425532 L31,130.595745" id="Line-35-Copy"></path>
                    <path d="M27,1.40425532 L27,130.595745" id="Line-35-Copy-2"></path>
                    <path d="M8,1.40425532 L8,130.595745" id="Line-35"></path>
                    <path d="M3,1.40425532 L3,130.595745" id="Line-35-Copy"></path>
                    <path d="M1,1.40425532 L1,130.595745" id="Line-35-Copy-2"></path>
                    <path d="M16,1.40425532 L16,130.595745" id="Line-35"></path>
                    <path d="M13,1.40425532 L13,130.595745" id="Line-35-Copy"></path>
                    <path d="M10,1.40425532 L10,130.595745" id="Line-35-Copy-2"></path>
                    <path d="M42,1.40425532 L42,130.595745" id="Line-35"></path>
                    <path d="M41,1.40425532 L41,130.595745" id="Line-35-Copy"></path>
                    <path d="M36,1.40425532 L36,130.595745" id="Line-35-Copy-2"></path>
                    <path d="M51,1.40425532 L51,130.595745" id="Line-35"></path>
                    <path d="M47,1.40425532 L47,130.595745" id="Line-35-Copy"></path>
                    <path d="M46,1.40425532 L46,130.595745" id="Line-35-Copy-2"></path>
                    <path d="M60,1.40425532 L60,130.595745" id="Line-35"></path>
                    <path d="M57,1.40425532 L57,130.595745" id="Line-35-Copy"></path>
                    <path d="M55,1.40425532 L55,130.595745" id="Line-35-Copy-2"></path>
                    <path d="M70,1.40425532 L70,130.595745" id="Line-35"></path>
                    <path d="M65,1.40425532 L65,130.595745" id="Line-35-Copy"></path>
                    <path d="M64,1.40425532 L64,130.595745" id="Line-35-Copy-2"></path>
                </g>
                <g id="Group-Copy" transform="translate(162.000000, 45.500000) rotate(-270.000000) translate(-162.000000, -45.500000) translate(126.500000, 10.500000)">
                    <path d="M26,0.744680851 L26,69.2553191" id="Line-35"></path>
                    <path d="M22,0.744680851 L22,69.2553191" id="Line-35-Copy"></path>
                    <path d="M18,0.744680851 L18,69.2553191" id="Line-35-Copy-2"></path>
                    <path d="M32,0.744680851 L32,69.2553191" id="Line-35"></path>
                    <path d="M31,0.744680851 L31,69.2553191" id="Line-35-Copy"></path>
                    <path d="M27,0.744680851 L27,69.2553191" id="Line-35-Copy-2"></path>
                    <path d="M8,0.744680851 L8,69.2553191" id="Line-35"></path>
                    <path d="M3,0.744680851 L3,69.2553191" id="Line-35-Copy"></path>
                    <path d="M1,0.744680851 L1,69.2553191" id="Line-35-Copy-2"></path>
                    <path d="M16,0.744680851 L16,69.2553191" id="Line-35"></path>
                    <path d="M13,0.744680851 L13,69.2553191" id="Line-35-Copy"></path>
                    <path d="M10,0.744680851 L10,69.2553191" id="Line-35-Copy-2"></path>
                    <path d="M42,0.744680851 L42,69.2553191" id="Line-35"></path>
                    <path d="M41,0.744680851 L41,69.2553191" id="Line-35-Copy"></path>
                    <path d="M36,0.744680851 L36,69.2553191" id="Line-35-Copy-2"></path>
                    <path d="M51,0.744680851 L51,69.2553191" id="Line-35"></path>
                    <path d="M47,0.744680851 L47,69.2553191" id="Line-35-Copy"></path>
                    <path d="M46,0.744680851 L46,69.2553191" id="Line-35-Copy-2"></path>
                    <path d="M60,0.744680851 L60,69.2553191" id="Line-35"></path>
                    <path d="M57,0.744680851 L57,69.2553191" id="Line-35-Copy"></path>
                    <path d="M55,0.744680851 L55,69.2553191" id="Line-35-Copy-2"></path>
                    <path d="M70,0.744680851 L70,69.2553191" id="Line-35"></path>
                    <path d="M65,0.744680851 L65,69.2553191" id="Line-35-Copy"></path>
                    <path d="M64,0.744680851 L64,69.2553191" id="Line-35-Copy-2"></path>
                </g>
            </g>
        </g>
    </g>
</svg>